<svg xmlns="http://www.w3.org/2000/svg" version="1.1" xmlns:xlink="http://www.w3.org/1999/xlink" xmlns:svgjs="http://svgjs.dev/svgjs" width="1440" height="560" preserveAspectRatio="none" viewBox="0 0 1440 560"><g mask="url(&quot;#SvgjsMask2682&quot;)" fill="none"><rect width="1440" height="560" x="0" y="0" fill="url(&quot;#SvgjsLinearGradient2683&quot;)"></rect><path d="M1310.323,458.887C1365.292,457.723,1420.645,435.822,1446.573,387.338C1471.361,340.986,1455.094,285.707,1426.533,241.58C1400.709,201.681,1357.84,175.879,1310.323,176.832C1264.373,177.753,1227.685,208.031,1201.913,246.084C1171.438,291.082,1139.032,344.901,1163.702,393.326C1189.749,444.455,1252.955,460.101,1310.323,458.887" fill="rgba(255, 109, 109, 0.4)" class="triangle-float1"></path><path d="M-77.97 504.89 a137.82 137.82 0 1 0 275.64 0 a137.82 137.82 0 1 0 -275.64 0z" fill="rgba(255, 109, 109, 0.4)" class="triangle-float2"></path><path d="M492.517,721.834C544.783,723.149,602.745,712.068,627.879,666.222C652.418,621.46,627.681,568.891,599.809,526.125C575.072,488.169,537.745,461.184,492.517,458.524C441.836,455.544,387.536,468.861,360.888,512.074C333.169,557.023,340.39,614.963,368.46,659.694C394.809,701.683,442.962,720.587,492.517,721.834" fill="rgba(255, 109, 109, 0.4)" class="triangle-float3"></path><path d="M924.61,284.332C980.45,286.767,1039.435,268.923,1067.475,220.572C1095.587,172.097,1083.866,110.647,1052.11,64.477C1024.261,23.987,973.748,13.557,924.61,12.858C873.795,12.135,817.64,17.687,790.671,60.76C762.488,105.772,774.515,163.433,801.808,208.99C828.26,253.145,873.187,282.09,924.61,284.332" fill="rgba(255, 109, 109, 0.4)" class="triangle-float1"></path><path d="M1467.669,556.198C1520.441,558.898,1570.586,531.808,1598.287,486.81C1627.399,439.518,1636.456,377.967,1605.957,331.558C1577.513,288.276,1519.448,286.873,1467.669,288.054C1418.717,289.171,1364.664,295.389,1339.895,337.627C1314.93,380.2,1333.409,431.926,1358.317,474.533C1382.925,516.628,1418.973,553.707,1467.669,556.198" fill="rgba(255, 109, 109, 0.4)" class="triangle-float1"></path><path d="M464.14 389.23 a170.24 170.24 0 1 0 340.48 0 a170.24 170.24 0 1 0 -340.48 0z" fill="rgba(255, 109, 109, 0.4)" class="triangle-float3"></path><path d="M1193.86,189.676C1234.417,190.523,1279.346,189.764,1302.42,156.399C1328.12,119.237,1327.308,68.846,1304.324,29.946C1281.71,-8.329,1238.316,-27.234,1193.86,-27.34C1149.2,-27.446,1104.395,-9.497,1082.485,29.419C1060.918,67.725,1067.79,115.926,1092.878,152.024C1114.852,183.642,1155.364,188.872,1193.86,189.676" fill="rgba(255, 109, 109, 0.4)" class="triangle-float2"></path><path d="M850.43 354.18 a184.18 184.18 0 1 0 368.36 0 a184.18 184.18 0 1 0 -368.36 0z" fill="rgba(255, 109, 109, 0.4)" class="triangle-float1"></path><path d="M914.226,198.417C938.417,196.418,958.679,183.427,972.483,163.461C989.115,139.406,1006.138,110.461,993.156,84.255C979.236,56.156,945.561,44.661,914.226,45.865C884.973,46.989,860.271,64.877,845.149,89.944C829.428,116.004,820.163,149.023,836.511,174.695C852.104,199.181,885.295,200.807,914.226,198.417" fill="rgba(255, 109, 109, 0.4)" class="triangle-float3"></path></g><defs><mask id="SvgjsMask2682"><rect width="1440" height="560" fill="#ffffff"></rect></mask><linearGradient x1="50%" y1="0%" x2="50%" y2="100%" gradientUnits="userSpaceOnUse" id="SvgjsLinearGradient2683"><stop stop-color="rgba(255, 218, 161, 1)" offset="0"></stop><stop stop-color="rgba(255, 241, 156, 1)" offset="1"></stop></linearGradient><style>
                @keyframes float1 {
                    0%{transform: translate(0, 0)}
                    50%{transform: translate(-10px, 0)}
                    100%{transform: translate(0, 0)}
                }

                .triangle-float1 {
                    animation: float1 5s infinite;
                }

                @keyframes float2 {
                    0%{transform: translate(0, 0)}
                    50%{transform: translate(-5px, -5px)}
                    100%{transform: translate(0, 0)}
                }

                .triangle-float2 {
                    animation: float2 4s infinite;
                }

                @keyframes float3 {
                    0%{transform: translate(0, 0)}
                    50%{transform: translate(0, -10px)}
                    100%{transform: translate(0, 0)}
                }

                .triangle-float3 {
                    animation: float3 6s infinite;
                }
            </style></defs></svg>