<svg xmlns="http://www.w3.org/2000/svg" xmlns:xlink="http://www.w3.org/1999/xlink" width="500" zoomAndPan="magnify" viewBox="0 0 375 374.999991" height="500" preserveAspectRatio="xMidYMid meet" version="1.0"><defs><filter x="0%" y="0%" width="100%" height="100%" id="120043e4b1"><feColorMatrix values="0 0 0 0 1 0 0 0 0 1 0 0 0 0 1 0 0 0 1 0" color-interpolation-filters="sRGB"/></filter><g/><mask id="651c394eaa"><g filter="url(#120043e4b1)"><rect x="-37.5" width="450" fill="#000000" y="-37.499999" height="449.999989" fill-opacity="0.498"/></g></mask><clipPath id="941394750d"><path d="M 4 0 L 316 0 L 316 375 L 4 375 Z M 4 0 " clip-rule="nonzero"/></clipPath><clipPath id="7a25d58754"><rect x="0" width="318" y="0" height="375"/></clipPath></defs><g mask="url(#651c394eaa)"><g transform="matrix(1, 0, 0, 1, 28, 0)"><g clip-path="url(#7a25d58754)"><g clip-path="url(#941394750d)"><path fill="#ee3378" d="M 165.699219 93.738281 C 161.992188 87.984375 158.289062 81.894531 153.910156 75.804688 C 148.859375 69.035156 143.808594 61.929688 137.40625 56.175781 C 130.671875 50.085938 126.96875 41.625 119.894531 36.210938 C 112.824219 30.796875 107.769531 23.011719 100.699219 17.257812 C 84.871094 4.398438 67.019531 -2.707031 46.140625 0.675781 C 31.320312 3.046875 20.878906 11.503906 12.796875 24.367188 C 6.0625 34.855469 3.367188 46.363281 4.378906 57.867188 C 5.386719 69.035156 9.765625 79.863281 13.132812 90.691406 C 16.5 100.84375 20.207031 110.660156 24.246094 120.472656 C 26.269531 125.886719 28.960938 131.300781 31.992188 136.378906 C 41.421875 152.28125 51.191406 167.851562 60.621094 183.417969 C 65.335938 191.199219 70.386719 198.984375 75.101562 206.765625 C 81.839844 217.933594 88.574219 229.101562 94.972656 240.605469 C 103.054688 254.820312 110.464844 269.371094 118.546875 283.246094 C 129.324219 302.199219 140.777344 320.808594 151.554688 339.761719 C 156.269531 348.222656 159.636719 357.695312 164.015625 366.496094 C 169.402344 376.984375 181.863281 378.675781 188.601562 369.203125 C 198.703125 355.664062 207.796875 341.453125 217.5625 327.578125 C 225.984375 315.734375 234.402344 304.226562 242.484375 292.382812 C 250.90625 279.523438 258.988281 266.664062 265.386719 252.453125 C 271.113281 239.59375 279.53125 228.085938 286.605469 215.902344 C 292.667969 206.089844 296.707031 195.597656 299.402344 184.433594 C 301.761719 174.28125 305.464844 164.804688 307.824219 154.652344 C 310.179688 144.839844 311.863281 134.6875 313.882812 124.535156 C 317.589844 106.261719 315.230469 87.984375 312.539062 70.050781 C 310.179688 54.484375 305.800781 38.917969 295.023438 26.734375 C 287.613281 18.273438 278.523438 12.519531 267.070312 9.476562 C 256.96875 6.769531 247.199219 6.429688 237.097656 7.785156 C 227.667969 8.796875 220.257812 13.535156 213.859375 20.644531 C 208.46875 27.074219 202.070312 32.488281 195.671875 37.902344 C 186.578125 45.347656 180.515625 54.484375 176.136719 64.972656 C 172.097656 74.789062 168.730469 84.941406 165.699219 93.738281 Z M 222.953125 53.128906 C 219.246094 46.363281 219.246094 40.609375 224.636719 36.210938 C 231.371094 31.132812 237.433594 24.027344 247.199219 28.425781 C 248.882812 29.101562 249.894531 30.457031 251.242188 31.472656 C 237.097656 32.488281 231.707031 44.667969 222.953125 53.128906 Z M 218.574219 281.894531 C 219.246094 282.230469 219.921875 282.910156 220.59375 283.246094 C 213.523438 294.414062 206.449219 305.242188 199.039062 316.410156 C 198.367188 316.070312 197.691406 315.734375 197.355469 315.394531 C 201.0625 302.199219 212.175781 293.398438 218.574219 281.894531 Z M 172.769531 194.921875 C 172.097656 194.921875 171.085938 194.921875 170.414062 194.585938 C 168.730469 184.769531 169.738281 175.292969 172.433594 166.15625 L 174.117188 166.15625 C 173.445312 175.972656 173.109375 185.445312 172.769531 194.921875 Z M 293.675781 71.402344 C 289.300781 59.898438 284.585938 48.730469 280.207031 37.226562 C 288.960938 47.039062 292.332031 58.882812 293.675781 71.402344 Z M 78.46875 63.28125 L 77.460938 64.296875 C 72.070312 59.222656 66.347656 54.144531 60.957031 49.070312 L 61.96875 48.054688 C 69.039062 51.4375 73.753906 57.191406 78.46875 63.28125 Z M 266.0625 58.207031 C 266.734375 57.867188 267.40625 57.867188 268.417969 57.527344 C 270.777344 64.972656 273.132812 72.082031 275.828125 79.527344 C 275.152344 79.863281 274.816406 79.863281 274.144531 80.203125 C 271.113281 72.757812 268.417969 65.3125 266.0625 58.207031 Z M 29.300781 69.710938 C 28.625 69.710938 28.289062 69.375 27.617188 69.375 C 28.960938 63.957031 30.308594 58.882812 31.65625 53.46875 C 32.332031 53.808594 33.003906 53.808594 33.675781 54.144531 C 29.300781 58.542969 35.699219 65.652344 29.300781 69.710938 Z M 262.691406 156.003906 C 263.367188 150.929688 263.703125 146.867188 264.375 142.46875 C 264.714844 142.46875 265.386719 142.808594 265.722656 142.808594 C 264.375 146.867188 267.746094 152.28125 262.691406 156.003906 Z M 262.691406 156.003906 " fill-opacity="1" fill-rule="nonzero"/></g></g></g></g><g fill="#fdfff0" fill-opacity="1"><g transform="translate(142.621169, 193.137435)"><g><path d="M 44.308594 -29.949219 C 43.554688 -32.589844 42.121094 -30.6875 41.523438 -29.636719 C 40.097656 -27.621094 37.769531 -25.65625 36.003906 -23.730469 C 33.597656 -21.308594 31.199219 -18.777344 28.671875 -16.460938 C 27.414062 -15.246094 25.851562 -13.558594 24.214844 -12.878906 C 24 -12.75 23.226562 -12.582031 23.234375 -12.472656 L 23.113281 -12.574219 C 23.113281 -12.574219 22.875 -14.351562 22.976562 -14.472656 C 22.984375 -15.933594 23.324219 -17.417969 23.671875 -18.789062 C 23.769531 -19.023438 24.722656 -22.910156 24.496094 -22.894531 L 23.988281 -22.183594 C 24.558594 -23.570312 25.355469 -24.976562 26.03125 -26.484375 C 24.367188 -24.679688 23.277344 -22.691406 22.554688 -20.28125 C 22.1875 -19.132812 21.105469 -17.03125 21.003906 -15.339844 C 21.050781 -17.8125 22.488281 -21.175781 23.164062 -22.683594 C 24.113281 -25.109375 25.144531 -27.882812 26.433594 -30.222656 C 28.824219 -34.4375 34.363281 -38.546875 32.167969 -44 C 30.222656 -49.136719 26.082031 -48.949219 23.0625 -45.695312 C 21.605469 -44.128906 9.546875 -26.183594 9.898438 -25.984375 C 9.898438 -25.984375 10.917969 -27.40625 12.234375 -29.410156 L 6.339844 -19.328125 C 6.230469 -19.316406 7.320312 -21.304688 7.199219 -21.410156 C 7.082031 -21.511719 6.355469 -20.675781 6.277344 -20.21875 C 6.328125 -22.582031 6.941406 -24.984375 6.992188 -27.347656 C 7.039062 -28.246094 6.878906 -28.910156 7.039062 -29.820312 C 7.378906 -31.304688 7.710938 -32.902344 8.292969 -34.179688 C 8.675781 -35.105469 9.511719 -35.953125 9.667969 -36.859375 C 10.011719 -38.347656 9.859375 -38.894531 10.773438 -40.199219 C 11.585938 -41.378906 12.84375 -42.59375 13.554688 -43.65625 C 15.25 -46.585938 11.871094 -48.25 10.0625 -48.457031 C 8.59375 -48.574219 7.132812 -48.578125 5.847656 -47.699219 C 4.460938 -46.699219 4.851562 -45.941406 4.609375 -44.691406 C 4.386719 -43.101562 3.398438 -41.234375 2.945312 -39.742188 C 2.222656 -37.328125 1.613281 -34.925781 1 -32.523438 C 0.277344 -30.113281 -0.453125 -27.816406 -0.953125 -25.421875 C -1.371094 -23.480469 -1.128906 -21.703125 -1.222656 -19.898438 C -1.300781 -17.871094 -1.539062 -16.507812 -0.402344 -14.792969 C 0.851562 -12.976562 4.078125 -10.289062 5.910156 -12.894531 L 6.421875 -12.035156 C 8.019531 -16.304688 10.65625 -20.203125 12.710938 -24.394531 C 13.585938 -26.253906 15.28125 -27.613281 16.597656 -29.617188 C 18.414062 -32.445312 20.003906 -35.253906 22.050781 -37.988281 C 21.757812 -37.402344 20.492188 -34.730469 20.613281 -34.625 C 20.828125 -34.753906 20.921875 -34.984375 21.128906 -35.226562 L 19.792969 -31.984375 C 19.671875 -32.085938 20.175781 -32.910156 19.953125 -32.894531 C 19.152344 -33.058594 17.261719 -26.632812 17.082031 -26.058594 C 16.476562 -23.546875 16.527344 -21.304688 16.492188 -18.71875 C 16.46875 -17.480469 16.335938 -16.234375 16.425781 -15.007812 C 16.515625 -13.777344 16.714844 -12.558594 17.363281 -11.371094 C 17.746094 -10.722656 18.257812 -9.863281 18.859375 -9.34375 C 18.96875 -9.351562 20.28125 -8.324219 19.65625 -9.179688 L 20.375 -8.558594 L 20.023438 -8.757812 C 19.953125 -8.191406 24.25 -6.257812 24.933594 -6.082031 C 28.136719 -5.304688 31.226562 -9.121094 33.082031 -11.390625 C 35.550781 -14.488281 37.542969 -18.003906 39.773438 -21.308594 C 40.980469 -23.195312 44.949219 -27.300781 44.308594 -29.949219 Z M 44.308594 -29.949219 "/></g></g></g><g fill="#fdfff0" fill-opacity="1"><g transform="translate(180.706146, 190.365651)"><g><path d="M 27.265625 -29.609375 C 26.9375 -31.042969 25.40625 -30.484375 24.664062 -29.867188 C 23.707031 -29.125 18.660156 -21.34375 19.144531 -20.820312 C 19.480469 -20.84375 19.703125 -20.859375 19.910156 -21.101562 C 18.484375 -19.085938 15.738281 -16.753906 13.734375 -14.921875 C 12.582031 -13.828125 9.769531 -10.816406 7.914062 -11.582031 C 3.980469 -13.203125 10.710938 -27.167969 10.367188 -27.253906 C 10.023438 -27.34375 7.6875 -20.882812 7.234375 -19.390625 C 8.289062 -23.398438 9.792969 -27.4375 11.664062 -31.054688 C 11.578125 -30.710938 11.28125 -30.128906 11.503906 -30.144531 C 11.738281 -30.050781 13.242188 -32.515625 12.890625 -32.714844 C 12.777344 -32.707031 12.554688 -32.691406 12.453125 -32.570312 C 12.761719 -32.929688 13.3125 -33.082031 13.265625 -33.753906 C 13.183594 -34.871094 10.53125 -35.800781 9.613281 -36.070312 C 7.425781 -36.808594 5.289062 -36.878906 3.695312 -35.640625 C 1.558594 -34.136719 1.304688 -31.425781 0.582031 -29.011719 C 0.410156 -28.328125 -1.136719 -20.242188 -0.679688 -20.164062 C -0.464844 -20.289062 -0.472656 -20.402344 -0.378906 -20.632812 L -0.566406 -18.597656 C -0.679688 -18.589844 -0.496094 -19.164062 -0.71875 -19.148438 C -1.613281 -19.085938 -1.097656 -15.078125 -0.945312 -14.527344 C -0.351562 -12.550781 1.316406 -11.210938 2.667969 -9.625 C 3.410156 -8.671875 4.15625 -7.714844 5.207031 -7.117188 C 6.621094 -6.207031 5.65625 -7.148438 6.582031 -6.765625 L 6.359375 -6.75 C 6.296875 -6.074219 10.621094 -5.265625 11.507812 -5.441406 C 15.351562 -6.621094 17.792969 -11.625 19.808594 -14.804688 C 21.734375 -17.640625 23.328125 -20.449219 25.023438 -23.382812 C 26.035156 -24.914062 27.867188 -27.519531 27.265625 -29.609375 Z M 6.695312 -42.257812 C 6.941406 -41.941406 6.640625 -41.46875 7.453125 -41.078125 C 8.257812 -40.800781 8.675781 -41.28125 9.328125 -41.550781 C 10.628906 -42.207031 11.527344 -43.734375 12.46875 -44.699219 C 12.785156 -44.949219 12.125 -44.789062 12.125 -44.789062 C 13.480469 -46.234375 12.363281 -44.582031 13.648438 -45.460938 C 14.921875 -46.453125 15.039062 -47.917969 16.066406 -49.230469 C 14.769531 -48.574219 13.820312 -47.71875 13.007812 -46.535156 C 11.996094 -45.003906 11.261719 -44.277344 10.089844 -43.40625 C 11.359375 -44.507812 11.957031 -45.5625 12.941406 -47.429688 C 13.253906 -47.789062 13.570312 -48.039062 14.003906 -48.292969 C 13.644531 -48.605469 13.617188 -48.9375 14.042969 -49.308594 C 14.335938 -49.890625 14.988281 -50.160156 15.285156 -50.746094 C 15.785156 -51.566406 15.601562 -52.5625 16.214844 -53.394531 C 16.738281 -53.882812 17.496094 -54.273438 17.910156 -54.753906 C 18.851562 -55.71875 19.847656 -57.476562 19.292969 -58.898438 C 18.75 -60.203125 17.511719 -61.800781 16.226562 -62.492188 C 14.714844 -63.167969 12.683594 -63.355469 11.167969 -62.574219 C 10.839844 -62.4375 9.523438 -62.003906 10.003906 -61.589844 C 10.132812 -61.375 10.242188 -61.382812 10.464844 -61.398438 C 9.519531 -60.542969 7.941406 -59.082031 10.351562 -58.359375 C 10.144531 -58.117188 10.441406 -57.128906 10.449219 -57.019531 C 10.394531 -56.226562 9.128906 -51.980469 8.269531 -49.898438 L 9.464844 -52.003906 C 8.804688 -50.273438 8.027344 -48.644531 7.117188 -47.230469 C 7.683594 -48.730469 6.464844 -46.957031 6.488281 -46.625 C 5.21875 -47.09375 5.804688 -43.652344 5.941406 -43.328125 C 5.949219 -43.214844 6.695312 -42.257812 6.695312 -42.257812 Z M 6.507812 -15.519531 L 6.515625 -15.410156 L 6.339844 -14.722656 L 6.496094 -15.632812 C 6.601562 -15.75 6.601562 -15.75 6.507812 -15.519531 Z M 7.777344 -48.964844 C 7.777344 -48.964844 7.984375 -49.203125 8.175781 -49.664062 Z M 6.816406 -46.757812 C 6.824219 -46.648438 6.824219 -46.648438 6.71875 -46.527344 C 6.71875 -46.527344 6.710938 -46.640625 6.601562 -46.632812 C 6.710938 -46.640625 6.710938 -46.640625 6.816406 -46.757812 Z M 6.816406 -46.757812 "/></g></g></g><g fill="#fdfff0" fill-opacity="1"><g transform="translate(201.814827, 188.829383)"><g><path d="M 44.308594 -29.949219 C 43.554688 -32.589844 42.121094 -30.6875 41.523438 -29.636719 C 40.097656 -27.621094 37.769531 -25.65625 36.003906 -23.730469 C 33.597656 -21.308594 31.199219 -18.777344 28.671875 -16.460938 C 27.414062 -15.246094 25.851562 -13.558594 24.214844 -12.878906 C 24 -12.75 23.226562 -12.582031 23.234375 -12.472656 L 23.113281 -12.574219 C 23.113281 -12.574219 22.875 -14.351562 22.976562 -14.472656 C 22.984375 -15.933594 23.324219 -17.417969 23.671875 -18.789062 C 23.769531 -19.023438 24.722656 -22.910156 24.496094 -22.894531 L 23.988281 -22.183594 C 24.558594 -23.570312 25.355469 -24.976562 26.03125 -26.484375 C 24.367188 -24.679688 23.277344 -22.691406 22.554688 -20.28125 C 22.1875 -19.132812 21.105469 -17.03125 21.003906 -15.339844 C 21.050781 -17.8125 22.488281 -21.175781 23.164062 -22.683594 C 24.113281 -25.109375 25.144531 -27.882812 26.433594 -30.222656 C 28.824219 -34.4375 34.363281 -38.546875 32.167969 -44 C 30.222656 -49.136719 26.082031 -48.949219 23.0625 -45.695312 C 21.605469 -44.128906 9.546875 -26.183594 9.898438 -25.984375 C 9.898438 -25.984375 10.917969 -27.40625 12.234375 -29.410156 L 6.339844 -19.328125 C 6.230469 -19.316406 7.320312 -21.304688 7.199219 -21.410156 C 7.082031 -21.511719 6.355469 -20.675781 6.277344 -20.21875 C 6.328125 -22.582031 6.941406 -24.984375 6.992188 -27.347656 C 7.039062 -28.246094 6.878906 -28.910156 7.039062 -29.820312 C 7.378906 -31.304688 7.710938 -32.902344 8.292969 -34.179688 C 8.675781 -35.105469 9.511719 -35.953125 9.667969 -36.859375 C 10.011719 -38.347656 9.859375 -38.894531 10.773438 -40.199219 C 11.585938 -41.378906 12.84375 -42.59375 13.554688 -43.65625 C 15.25 -46.585938 11.871094 -48.25 10.0625 -48.457031 C 8.59375 -48.574219 7.132812 -48.578125 5.847656 -47.699219 C 4.460938 -46.699219 4.851562 -45.941406 4.609375 -44.691406 C 4.386719 -43.101562 3.398438 -41.234375 2.945312 -39.742188 C 2.222656 -37.328125 1.613281 -34.925781 1 -32.523438 C 0.277344 -30.113281 -0.453125 -27.816406 -0.953125 -25.421875 C -1.371094 -23.480469 -1.128906 -21.703125 -1.222656 -19.898438 C -1.300781 -17.871094 -1.539062 -16.507812 -0.402344 -14.792969 C 0.851562 -12.976562 4.078125 -10.289062 5.910156 -12.894531 L 6.421875 -12.035156 C 8.019531 -16.304688 10.65625 -20.203125 12.710938 -24.394531 C 13.585938 -26.253906 15.28125 -27.613281 16.597656 -29.617188 C 18.414062 -32.445312 20.003906 -35.253906 22.050781 -37.988281 C 21.757812 -37.402344 20.492188 -34.730469 20.613281 -34.625 C 20.828125 -34.753906 20.921875 -34.984375 21.128906 -35.226562 L 19.792969 -31.984375 C 19.671875 -32.085938 20.175781 -32.910156 19.953125 -32.894531 C 19.152344 -33.058594 17.261719 -26.632812 17.082031 -26.058594 C 16.476562 -23.546875 16.527344 -21.304688 16.492188 -18.71875 C 16.46875 -17.480469 16.335938 -16.234375 16.425781 -15.007812 C 16.515625 -13.777344 16.714844 -12.558594 17.363281 -11.371094 C 17.746094 -10.722656 18.257812 -9.863281 18.859375 -9.34375 C 18.96875 -9.351562 20.28125 -8.324219 19.65625 -9.179688 L 20.375 -8.558594 L 20.023438 -8.757812 C 19.953125 -8.191406 24.25 -6.257812 24.933594 -6.082031 C 28.136719 -5.304688 31.226562 -9.121094 33.082031 -11.390625 C 35.550781 -14.488281 37.542969 -18.003906 39.773438 -21.308594 C 40.980469 -23.195312 44.949219 -27.300781 44.308594 -29.949219 Z M 34.210938 -62.226562 C 32.953125 -61.015625 31.171875 -60.773438 29.558594 -61.328125 C 24.851562 -62.78125 22.515625 -67.105469 17.308594 -64.589844 C 15.886719 -64.039062 7.269531 -59.03125 11.152344 -56.621094 C 12.453125 -55.703125 14.007812 -57.5 15.210938 -57.925781 C 16.742188 -58.488281 18.105469 -58.25 19.582031 -58.019531 C 21.960938 -57.742188 24.09375 -56.214844 26.488281 -55.714844 C 28.417969 -55.40625 30.972656 -55.816406 32.789062 -57.070312 C 33.859375 -57.824219 34.359375 -58.644531 34.964844 -59.589844 C 35.363281 -60.289062 37.378906 -61.898438 36.277344 -63.164062 C 35.046875 -64.648438 34.523438 -62.585938 34.210938 -62.226562 Z M 34.210938 -62.226562 "/></g></g></g><g fill="#fdfff0" fill-opacity="1"><g transform="translate(239.899804, 186.057599)"><g><path d="M 54.894531 -31.058594 C 54.605469 -33.507812 52.75 -31.238281 52.144531 -30.296875 C 50.847656 -28.066406 49.667969 -25.734375 48.480469 -23.515625 C 45.800781 -18.71875 43.117188 -13.917969 39.972656 -9.308594 C 29.5 5.714844 35.703125 -20.117188 34.828125 -19.828125 C 34.386719 -19.683594 34.175781 -17.984375 34.085938 -17.640625 C 34.6875 -21.726562 36.015625 -26.652344 37.851562 -30.714844 C 38.902344 -33.261719 40.207031 -35.378906 37.777344 -37.894531 C 33.28125 -42.621094 28.808594 -37.691406 26.382812 -34.035156 C 24.957031 -38.199219 22.265625 -44.289062 16.792969 -43.890625 C 14.335938 -43.714844 12.972656 -42.378906 11.402344 -40.804688 C 10.445312 -40.0625 9.671875 -39.894531 8.835938 -39.046875 C 7.457031 -37.933594 6.566406 -36.296875 5.660156 -34.886719 C 2.265625 -29.023438 0.0976562 -21.792969 -0.660156 -15.222656 C -0.988281 -12.054688 -0.960938 -8.578125 0.160156 -5.515625 C 0.847656 -3.765625 3.152344 0.109375 5.695312 -0.414062 C 5.808594 -0.421875 5.578125 -0.519531 5.226562 -0.71875 C 6.820312 -0.382812 8.59375 -0.738281 9.867188 -1.730469 C 9.996094 -1.511719 8.695312 -0.859375 8.695312 -0.859375 C 10.0625 0.953125 18.417969 -10.773438 19.015625 -11.828125 C 20.320312 -13.941406 21.171875 -16.136719 22.355469 -18.359375 C 23.25 -19.996094 24.667969 -22.121094 25.660156 -23.875 C 25.605469 -23.085938 25.679688 -22.082031 25.679688 -22.082031 C 24.132812 -15.566406 22.738281 -8.503906 25.898438 -2.109375 C 27.371094 1.152344 30.613281 4.058594 34.363281 3.113281 C 37.671875 2.3125 40.230469 -1.132812 42.054688 -3.847656 C 44.300781 -6.929688 46.1875 -10.324219 48.0625 -13.828125 C 49.632812 -16.976562 51.089844 -20.113281 52.296875 -23.570312 C 53.035156 -25.757812 55.304688 -28.503906 54.894531 -31.058594 Z M 22.894531 -27.941406 C 22.394531 -27.121094 21.890625 -26.296875 21.5 -25.484375 L 18.898438 -21.136719 C 17.203125 -18.207031 15.386719 -15.378906 13.453125 -12.65625 C 12.949219 -11.835938 10.523438 -8.175781 9.378906 -8.429688 C 7.664062 -8.867188 9.027344 -14.804688 9.1875 -15.714844 C 9.410156 -17.304688 14.078125 -34.9375 15.617188 -35.386719 C 13.597656 -35.351562 8.589844 -14.660156 8.375 -12.960938 C 8.871094 -18.5 10.492188 -24.007812 12.359375 -29.195312 C 13.402344 -31.855469 15.699219 -38.871094 19.386719 -39.140625 C 21.394531 -39.285156 22.144531 -35.1875 22.574219 -33.871094 C 22.449219 -34.085938 21.207031 -37.25 21.101562 -37.132812 C 20.578125 -36.644531 23.257812 -30.664062 23.324219 -29.769531 C 23.386719 -28.875 23.386719 -28.875 22.894531 -27.941406 Z M 25.863281 -22.65625 C 25.863281 -22.65625 26.082031 -24.242188 26.171875 -24.585938 L 26.671875 -25.410156 Z M 23.683594 -29.460938 L 23.601562 -30.578125 C 23.96875 -30.152344 23.992188 -29.820312 23.683594 -29.460938 Z M 23.683594 -29.460938 "/></g></g></g></svg>