<svg xmlns="http://www.w3.org/2000/svg" xmlns:xlink="http://www.w3.org/1999/xlink" width="500" zoomAndPan="magnify" viewBox="0 0 375 374.999991" height="500" preserveAspectRatio="xMidYMid meet" version="1.0"><defs><g/></defs><path fill="#7792ce" d="M 181.285156 93.738281 C 184.988281 87.984375 188.695312 81.894531 193.074219 75.804688 C 198.125 69.035156 203.175781 61.929688 209.574219 56.175781 C 216.3125 50.085938 220.015625 41.625 227.085938 36.210938 C 234.160156 30.796875 239.210938 23.011719 246.285156 17.257812 C 262.113281 4.398438 279.964844 -2.707031 300.84375 0.675781 C 315.664062 3.046875 326.101562 11.503906 334.1875 24.367188 C 340.921875 34.855469 343.617188 46.363281 342.605469 57.867188 C 341.59375 69.035156 337.21875 79.863281 333.847656 90.691406 C 330.480469 100.84375 326.777344 110.660156 322.734375 120.472656 C 320.714844 125.886719 318.019531 131.300781 314.988281 136.378906 C 305.558594 152.28125 295.792969 167.851562 286.363281 183.417969 C 281.648438 191.199219 276.59375 198.984375 271.878906 206.765625 C 265.144531 217.933594 258.410156 229.101562 252.011719 240.605469 C 243.925781 254.820312 236.519531 269.371094 228.433594 283.246094 C 217.65625 302.199219 206.207031 320.808594 195.429688 339.761719 C 190.714844 348.222656 187.347656 357.695312 182.96875 366.496094 C 177.578125 376.984375 165.117188 378.675781 158.382812 369.203125 C 148.28125 355.664062 139.1875 341.453125 129.417969 327.578125 C 121 315.734375 112.582031 304.226562 104.496094 292.382812 C 96.078125 279.523438 87.996094 266.664062 81.597656 252.453125 C 75.871094 239.59375 67.449219 228.085938 60.378906 215.902344 C 54.316406 206.089844 50.273438 195.597656 47.582031 184.433594 C 45.222656 174.28125 41.519531 164.804688 39.160156 154.652344 C 36.804688 144.839844 35.121094 134.6875 33.097656 124.535156 C 29.394531 106.261719 31.75 87.984375 34.445312 70.050781 C 36.804688 54.484375 41.179688 38.917969 51.957031 26.734375 C 59.367188 18.273438 68.460938 12.519531 79.910156 9.476562 C 90.015625 6.769531 99.78125 6.429688 109.886719 7.785156 C 119.316406 8.796875 126.726562 13.535156 133.125 20.644531 C 138.511719 27.074219 144.910156 32.488281 151.3125 37.902344 C 160.402344 45.347656 166.464844 54.484375 170.84375 64.972656 C 174.886719 74.789062 178.253906 84.941406 181.285156 93.738281 Z M 124.03125 53.128906 C 127.734375 46.363281 127.734375 40.609375 122.347656 36.210938 C 115.609375 31.132812 109.550781 24.027344 99.78125 28.425781 C 98.097656 29.101562 97.089844 30.457031 95.742188 31.472656 C 109.886719 32.488281 115.273438 44.667969 124.03125 53.128906 Z M 128.410156 281.894531 C 127.734375 282.230469 127.0625 282.910156 126.386719 283.246094 C 133.460938 294.414062 140.535156 305.242188 147.941406 316.410156 C 148.617188 316.070312 149.289062 315.734375 149.625 315.394531 C 145.921875 302.199219 134.808594 293.398438 128.410156 281.894531 Z M 174.210938 194.921875 C 174.886719 194.921875 175.894531 194.921875 176.570312 194.585938 C 178.253906 184.769531 177.242188 175.292969 174.550781 166.15625 L 172.863281 166.15625 C 173.539062 175.972656 173.875 185.445312 174.210938 194.921875 Z M 53.304688 71.402344 C 57.683594 59.898438 62.398438 48.730469 66.777344 37.226562 C 58.019531 47.039062 54.652344 58.882812 53.304688 71.402344 Z M 268.511719 63.28125 L 269.523438 64.296875 C 274.910156 59.222656 280.636719 54.144531 286.027344 49.070312 L 285.015625 48.054688 C 277.941406 51.4375 273.226562 57.191406 268.511719 63.28125 Z M 80.921875 58.207031 C 80.25 57.867188 79.574219 57.867188 78.566406 57.527344 C 76.207031 64.972656 73.851562 72.082031 71.15625 79.527344 C 71.828125 79.863281 72.164062 79.863281 72.839844 80.203125 C 75.871094 72.757812 78.566406 65.3125 80.921875 58.207031 Z M 317.683594 69.710938 C 318.355469 69.710938 318.695312 69.375 319.367188 69.375 C 318.019531 63.957031 316.671875 58.882812 315.324219 53.46875 C 314.652344 53.808594 313.980469 53.808594 313.304688 54.144531 C 317.683594 58.542969 311.285156 65.652344 317.683594 69.710938 Z M 84.289062 156.003906 C 83.617188 150.929688 83.28125 146.867188 82.605469 142.46875 C 82.269531 142.46875 81.597656 142.808594 81.257812 142.808594 C 82.605469 146.867188 79.238281 152.28125 84.289062 156.003906 Z M 84.289062 156.003906 " fill-opacity="1" fill-rule="nonzero"/><g fill="#fdfff0" fill-opacity="1"><g transform="translate(106.607492, 212.118023)"><g><path d="M 44.308594 -29.949219 C 43.554688 -32.589844 42.121094 -30.6875 41.523438 -29.636719 C 40.097656 -27.621094 37.769531 -25.65625 36.003906 -23.730469 C 33.597656 -21.308594 31.199219 -18.777344 28.671875 -16.460938 C 27.414062 -15.246094 25.851562 -13.558594 24.214844 -12.878906 C 24 -12.75 23.226562 -12.582031 23.234375 -12.472656 L 23.113281 -12.574219 C 23.113281 -12.574219 22.875 -14.351562 22.976562 -14.472656 C 22.984375 -15.933594 23.324219 -17.417969 23.671875 -18.789062 C 23.769531 -19.023438 24.722656 -22.910156 24.496094 -22.894531 L 23.988281 -22.183594 C 24.558594 -23.570312 25.355469 -24.976562 26.03125 -26.484375 C 24.367188 -24.679688 23.277344 -22.691406 22.554688 -20.28125 C 22.1875 -19.132812 21.105469 -17.03125 21.003906 -15.339844 C 21.050781 -17.8125 22.488281 -21.175781 23.164062 -22.683594 C 24.113281 -25.109375 25.144531 -27.882812 26.433594 -30.222656 C 28.824219 -34.4375 34.363281 -38.546875 32.167969 -44 C 30.222656 -49.136719 26.082031 -48.949219 23.0625 -45.695312 C 21.605469 -44.128906 9.546875 -26.183594 9.898438 -25.984375 C 9.898438 -25.984375 10.917969 -27.40625 12.234375 -29.410156 L 6.339844 -19.328125 C 6.230469 -19.316406 7.320312 -21.304688 7.199219 -21.410156 C 7.082031 -21.511719 6.355469 -20.675781 6.277344 -20.21875 C 6.328125 -22.582031 6.941406 -24.984375 6.992188 -27.347656 C 7.039062 -28.246094 6.878906 -28.910156 7.039062 -29.820312 C 7.378906 -31.304688 7.710938 -32.902344 8.292969 -34.179688 C 8.675781 -35.105469 9.511719 -35.953125 9.667969 -36.859375 C 10.011719 -38.347656 9.859375 -38.894531 10.773438 -40.199219 C 11.585938 -41.378906 12.84375 -42.59375 13.554688 -43.65625 C 15.25 -46.585938 11.871094 -48.25 10.0625 -48.457031 C 8.59375 -48.574219 7.132812 -48.578125 5.847656 -47.699219 C 4.460938 -46.699219 4.851562 -45.941406 4.609375 -44.691406 C 4.386719 -43.101562 3.398438 -41.234375 2.945312 -39.742188 C 2.222656 -37.328125 1.613281 -34.925781 1 -32.523438 C 0.277344 -30.113281 -0.453125 -27.816406 -0.953125 -25.421875 C -1.371094 -23.480469 -1.128906 -21.703125 -1.222656 -19.898438 C -1.300781 -17.871094 -1.539062 -16.507812 -0.402344 -14.792969 C 0.851562 -12.976562 4.078125 -10.289062 5.910156 -12.894531 L 6.421875 -12.035156 C 8.019531 -16.304688 10.65625 -20.203125 12.710938 -24.394531 C 13.585938 -26.253906 15.28125 -27.613281 16.597656 -29.617188 C 18.414062 -32.445312 20.003906 -35.253906 22.050781 -37.988281 C 21.757812 -37.402344 20.492188 -34.730469 20.613281 -34.625 C 20.828125 -34.753906 20.921875 -34.984375 21.128906 -35.226562 L 19.792969 -31.984375 C 19.671875 -32.085938 20.175781 -32.910156 19.953125 -32.894531 C 19.152344 -33.058594 17.261719 -26.632812 17.082031 -26.058594 C 16.476562 -23.546875 16.527344 -21.304688 16.492188 -18.71875 C 16.46875 -17.480469 16.335938 -16.234375 16.425781 -15.007812 C 16.515625 -13.777344 16.714844 -12.558594 17.363281 -11.371094 C 17.746094 -10.722656 18.257812 -9.863281 18.859375 -9.34375 C 18.96875 -9.351562 20.28125 -8.324219 19.65625 -9.179688 L 20.375 -8.558594 L 20.023438 -8.757812 C 19.953125 -8.191406 24.25 -6.257812 24.933594 -6.082031 C 28.136719 -5.304688 31.226562 -9.121094 33.082031 -11.390625 C 35.550781 -14.488281 37.542969 -18.003906 39.773438 -21.308594 C 40.980469 -23.195312 44.949219 -27.300781 44.308594 -29.949219 Z M 44.308594 -29.949219 "/></g></g></g><g fill="#fdfff0" fill-opacity="1"><g transform="translate(144.692469, 209.346239)"><g><path d="M 27.265625 -29.609375 C 26.9375 -31.042969 25.40625 -30.484375 24.664062 -29.867188 C 23.707031 -29.125 18.660156 -21.34375 19.144531 -20.820312 C 19.480469 -20.84375 19.703125 -20.859375 19.910156 -21.101562 C 18.484375 -19.085938 15.738281 -16.753906 13.734375 -14.921875 C 12.582031 -13.828125 9.769531 -10.816406 7.914062 -11.582031 C 3.980469 -13.203125 10.710938 -27.167969 10.367188 -27.253906 C 10.023438 -27.34375 7.6875 -20.882812 7.234375 -19.390625 C 8.289062 -23.398438 9.792969 -27.4375 11.664062 -31.054688 C 11.578125 -30.710938 11.28125 -30.128906 11.503906 -30.144531 C 11.738281 -30.050781 13.242188 -32.515625 12.890625 -32.714844 C 12.777344 -32.707031 12.554688 -32.691406 12.453125 -32.570312 C 12.761719 -32.929688 13.3125 -33.082031 13.265625 -33.753906 C 13.183594 -34.871094 10.53125 -35.800781 9.613281 -36.070312 C 7.425781 -36.808594 5.289062 -36.878906 3.695312 -35.640625 C 1.558594 -34.136719 1.304688 -31.425781 0.582031 -29.011719 C 0.410156 -28.328125 -1.136719 -20.242188 -0.679688 -20.164062 C -0.464844 -20.289062 -0.472656 -20.402344 -0.378906 -20.632812 L -0.566406 -18.597656 C -0.679688 -18.589844 -0.496094 -19.164062 -0.71875 -19.148438 C -1.613281 -19.085938 -1.097656 -15.078125 -0.945312 -14.527344 C -0.351562 -12.550781 1.316406 -11.210938 2.667969 -9.625 C 3.410156 -8.671875 4.15625 -7.714844 5.207031 -7.117188 C 6.621094 -6.207031 5.65625 -7.148438 6.582031 -6.765625 L 6.359375 -6.75 C 6.296875 -6.074219 10.621094 -5.265625 11.507812 -5.441406 C 15.351562 -6.621094 17.792969 -11.625 19.808594 -14.804688 C 21.734375 -17.640625 23.328125 -20.449219 25.023438 -23.382812 C 26.035156 -24.914062 27.867188 -27.519531 27.265625 -29.609375 Z M 6.695312 -42.257812 C 6.941406 -41.941406 6.640625 -41.46875 7.453125 -41.078125 C 8.257812 -40.800781 8.675781 -41.28125 9.328125 -41.550781 C 10.628906 -42.207031 11.527344 -43.734375 12.46875 -44.699219 C 12.785156 -44.949219 12.125 -44.789062 12.125 -44.789062 C 13.480469 -46.234375 12.363281 -44.582031 13.648438 -45.460938 C 14.921875 -46.453125 15.039062 -47.917969 16.066406 -49.230469 C 14.769531 -48.574219 13.820312 -47.71875 13.007812 -46.535156 C 11.996094 -45.003906 11.261719 -44.277344 10.089844 -43.40625 C 11.359375 -44.507812 11.957031 -45.5625 12.941406 -47.429688 C 13.253906 -47.789062 13.570312 -48.039062 14.003906 -48.292969 C 13.644531 -48.605469 13.617188 -48.9375 14.042969 -49.308594 C 14.335938 -49.890625 14.988281 -50.160156 15.285156 -50.746094 C 15.785156 -51.566406 15.601562 -52.5625 16.214844 -53.394531 C 16.738281 -53.882812 17.496094 -54.273438 17.910156 -54.753906 C 18.851562 -55.71875 19.847656 -57.476562 19.292969 -58.898438 C 18.75 -60.203125 17.511719 -61.800781 16.226562 -62.492188 C 14.714844 -63.167969 12.683594 -63.355469 11.167969 -62.574219 C 10.839844 -62.4375 9.523438 -62.003906 10.003906 -61.589844 C 10.132812 -61.375 10.242188 -61.382812 10.464844 -61.398438 C 9.519531 -60.542969 7.941406 -59.082031 10.351562 -58.359375 C 10.144531 -58.117188 10.441406 -57.128906 10.449219 -57.019531 C 10.394531 -56.226562 9.128906 -51.980469 8.269531 -49.898438 L 9.464844 -52.003906 C 8.804688 -50.273438 8.027344 -48.644531 7.117188 -47.230469 C 7.683594 -48.730469 6.464844 -46.957031 6.488281 -46.625 C 5.21875 -47.09375 5.804688 -43.652344 5.941406 -43.328125 C 5.949219 -43.214844 6.695312 -42.257812 6.695312 -42.257812 Z M 6.507812 -15.519531 L 6.515625 -15.410156 L 6.339844 -14.722656 L 6.496094 -15.632812 C 6.601562 -15.75 6.601562 -15.75 6.507812 -15.519531 Z M 7.777344 -48.964844 C 7.777344 -48.964844 7.984375 -49.203125 8.175781 -49.664062 Z M 6.816406 -46.757812 C 6.824219 -46.648438 6.824219 -46.648438 6.71875 -46.527344 C 6.71875 -46.527344 6.710938 -46.640625 6.601562 -46.632812 C 6.710938 -46.640625 6.710938 -46.640625 6.816406 -46.757812 Z M 6.816406 -46.757812 "/></g></g></g><g fill="#fdfff0" fill-opacity="1"><g transform="translate(165.80115, 207.809971)"><g><path d="M 44.308594 -29.949219 C 43.554688 -32.589844 42.121094 -30.6875 41.523438 -29.636719 C 40.097656 -27.621094 37.769531 -25.65625 36.003906 -23.730469 C 33.597656 -21.308594 31.199219 -18.777344 28.671875 -16.460938 C 27.414062 -15.246094 25.851562 -13.558594 24.214844 -12.878906 C 24 -12.75 23.226562 -12.582031 23.234375 -12.472656 L 23.113281 -12.574219 C 23.113281 -12.574219 22.875 -14.351562 22.976562 -14.472656 C 22.984375 -15.933594 23.324219 -17.417969 23.671875 -18.789062 C 23.769531 -19.023438 24.722656 -22.910156 24.496094 -22.894531 L 23.988281 -22.183594 C 24.558594 -23.570312 25.355469 -24.976562 26.03125 -26.484375 C 24.367188 -24.679688 23.277344 -22.691406 22.554688 -20.28125 C 22.1875 -19.132812 21.105469 -17.03125 21.003906 -15.339844 C 21.050781 -17.8125 22.488281 -21.175781 23.164062 -22.683594 C 24.113281 -25.109375 25.144531 -27.882812 26.433594 -30.222656 C 28.824219 -34.4375 34.363281 -38.546875 32.167969 -44 C 30.222656 -49.136719 26.082031 -48.949219 23.0625 -45.695312 C 21.605469 -44.128906 9.546875 -26.183594 9.898438 -25.984375 C 9.898438 -25.984375 10.917969 -27.40625 12.234375 -29.410156 L 6.339844 -19.328125 C 6.230469 -19.316406 7.320312 -21.304688 7.199219 -21.410156 C 7.082031 -21.511719 6.355469 -20.675781 6.277344 -20.21875 C 6.328125 -22.582031 6.941406 -24.984375 6.992188 -27.347656 C 7.039062 -28.246094 6.878906 -28.910156 7.039062 -29.820312 C 7.378906 -31.304688 7.710938 -32.902344 8.292969 -34.179688 C 8.675781 -35.105469 9.511719 -35.953125 9.667969 -36.859375 C 10.011719 -38.347656 9.859375 -38.894531 10.773438 -40.199219 C 11.585938 -41.378906 12.84375 -42.59375 13.554688 -43.65625 C 15.25 -46.585938 11.871094 -48.25 10.0625 -48.457031 C 8.59375 -48.574219 7.132812 -48.578125 5.847656 -47.699219 C 4.460938 -46.699219 4.851562 -45.941406 4.609375 -44.691406 C 4.386719 -43.101562 3.398438 -41.234375 2.945312 -39.742188 C 2.222656 -37.328125 1.613281 -34.925781 1 -32.523438 C 0.277344 -30.113281 -0.453125 -27.816406 -0.953125 -25.421875 C -1.371094 -23.480469 -1.128906 -21.703125 -1.222656 -19.898438 C -1.300781 -17.871094 -1.539062 -16.507812 -0.402344 -14.792969 C 0.851562 -12.976562 4.078125 -10.289062 5.910156 -12.894531 L 6.421875 -12.035156 C 8.019531 -16.304688 10.65625 -20.203125 12.710938 -24.394531 C 13.585938 -26.253906 15.28125 -27.613281 16.597656 -29.617188 C 18.414062 -32.445312 20.003906 -35.253906 22.050781 -37.988281 C 21.757812 -37.402344 20.492188 -34.730469 20.613281 -34.625 C 20.828125 -34.753906 20.921875 -34.984375 21.128906 -35.226562 L 19.792969 -31.984375 C 19.671875 -32.085938 20.175781 -32.910156 19.953125 -32.894531 C 19.152344 -33.058594 17.261719 -26.632812 17.082031 -26.058594 C 16.476562 -23.546875 16.527344 -21.304688 16.492188 -18.71875 C 16.46875 -17.480469 16.335938 -16.234375 16.425781 -15.007812 C 16.515625 -13.777344 16.714844 -12.558594 17.363281 -11.371094 C 17.746094 -10.722656 18.257812 -9.863281 18.859375 -9.34375 C 18.96875 -9.351562 20.28125 -8.324219 19.65625 -9.179688 L 20.375 -8.558594 L 20.023438 -8.757812 C 19.953125 -8.191406 24.25 -6.257812 24.933594 -6.082031 C 28.136719 -5.304688 31.226562 -9.121094 33.082031 -11.390625 C 35.550781 -14.488281 37.542969 -18.003906 39.773438 -21.308594 C 40.980469 -23.195312 44.949219 -27.300781 44.308594 -29.949219 Z M 34.210938 -62.226562 C 32.953125 -61.015625 31.171875 -60.773438 29.558594 -61.328125 C 24.851562 -62.78125 22.515625 -67.105469 17.308594 -64.589844 C 15.886719 -64.039062 7.269531 -59.03125 11.152344 -56.621094 C 12.453125 -55.703125 14.007812 -57.5 15.210938 -57.925781 C 16.742188 -58.488281 18.105469 -58.25 19.582031 -58.019531 C 21.960938 -57.742188 24.09375 -56.214844 26.488281 -55.714844 C 28.417969 -55.40625 30.972656 -55.816406 32.789062 -57.070312 C 33.859375 -57.824219 34.359375 -58.644531 34.964844 -59.589844 C 35.363281 -60.289062 37.378906 -61.898438 36.277344 -63.164062 C 35.046875 -64.648438 34.523438 -62.585938 34.210938 -62.226562 Z M 34.210938 -62.226562 "/></g></g></g><g fill="#fdfff0" fill-opacity="1"><g transform="translate(203.886127, 205.038187)"><g><path d="M 49.355469 -31.550781 C 49.355469 -31.550781 49.476562 -31.449219 49.347656 -31.664062 C 48.734375 -32.40625 47.992188 -31.789062 47.226562 -31.507812 C 44.035156 -30.605469 40.742188 -29.578125 37.433594 -28.777344 C 38.367188 -32.886719 39.289062 -37.21875 39.433594 -41.386719 C 39.542969 -42.964844 39.53125 -44.648438 39.085938 -46.1875 C 38.789062 -47.175781 38.378906 -48.160156 37.753906 -49.011719 C 37.753906 -49.011719 36.292969 -50.589844 36.695312 -49.71875 L 36.574219 -49.824219 L 36.0625 -50.683594 L 36.542969 -50.269531 C 36.605469 -50.949219 34.617188 -52.039062 34.617188 -52.039062 C 31.621094 -54.628906 27.667969 -56.472656 24.023438 -54.074219 C 21.777344 -52.566406 20.039062 -50.191406 18.640625 -47.84375 C 18.136719 -47.023438 17.644531 -46.085938 17.261719 -45.160156 C 16.878906 -44.234375 16.421875 -41.28125 15.785156 -40.789062 C 15.257812 -40.300781 13.589844 -40.066406 12.839844 -39.5625 C 11.757812 -39.035156 10.792969 -38.402344 9.949219 -37.667969 C 7.921875 -36.171875 6.386719 -34.152344 4.960938 -32.140625 C 2.539062 -28.371094 1.492188 -24.25 -0.148438 -20.539062 C -3.226562 -13.464844 1.335938 -4.8125 8.160156 -2.054688 C 10.355469 -1.203125 12.84375 -0.933594 15.0625 -1.320312 C 17.382812 -1.828125 19.527344 -3.21875 21.21875 -4.6875 C 22.804688 -6.039062 26.328125 -8.542969 26.859375 -10.488281 C 26.851562 -10.601562 26.636719 -10.472656 26.324219 -10.113281 L 29.289062 -14.148438 C 29.410156 -14.042969 28.597656 -12.859375 28.597656 -12.859375 C 29.402344 -12.582031 32.992188 -18.796875 33.40625 -19.273438 C 34.089844 -20.671875 34.769531 -22.179688 35.5625 -23.585938 C 36.273438 -24.648438 36.058594 -24.519531 37.140625 -25.050781 C 37.039062 -24.929688 38.457031 -25.480469 38.679688 -25.496094 C 39.894531 -25.8125 52.898438 -27.65625 49.355469 -31.550781 Z M 12.351562 -6.175781 L 12.238281 -6.167969 C 3.066406 -4.152344 12.359375 -24.59375 12.5 -25.726562 L 11.902344 -24.671875 C 13.335938 -28.144531 14.703125 -30.9375 15.421875 -31.890625 C 17.054688 -26.394531 23.242188 -24.710938 28.207031 -24.398438 C 25.4375 -17.683594 20.066406 -8.199219 12.351562 -6.175781 Z M 32.105469 -38.71875 C 31.550781 -35.535156 31.179688 -31.351562 29.707031 -28.4375 C 29.230469 -27.28125 29.542969 -27.640625 28.441406 -27.335938 C 27.789062 -27.0625 26.320312 -27.179688 25.640625 -27.242188 C 24.402344 -27.265625 22.933594 -27.382812 21.984375 -28.101562 C 20.324219 -29.328125 20.390625 -31.464844 20.476562 -33.378906 C 20.5625 -35.296875 20.992188 -37.125 21.53125 -38.960938 C 21.816406 -39.652344 23.679688 -43.382812 23.296875 -44.027344 C 23.160156 -44.355469 22.078125 -42.253906 21.972656 -42.136719 C 22.554688 -43.414062 23.175781 -44.132812 23.679688 -44.953125 C 23.566406 -44.945312 23.667969 -45.066406 23.765625 -45.296875 L 23.773438 -45.1875 L 23.867188 -45.417969 C 23.867188 -45.417969 23.859375 -45.53125 23.972656 -45.539062 C 25.484375 -47.894531 29.253906 -53.222656 31.738281 -49.921875 C 33.625 -47.136719 32.460938 -41.550781 32.105469 -38.71875 Z M 23.867188 -45.417969 L 23.972656 -45.539062 C 23.980469 -45.425781 23.867188 -45.417969 23.867188 -45.417969 Z M 23.867188 -45.417969 "/></g></g></g></svg>